<svg width="32" height="32" viewBox="0 0 32 32" fill="none" xmlns="http://www.w3.org/2000/svg">
<path d="M2.5963 19.4693H5.19222V28.555H2.5963V19.4693ZM10.3841 12.9795H12.98V28.555H10.3841V12.9795ZM18.1718 18.1713H20.7677V28.555H18.1718V18.1713ZM25.9596 12.9795H28.5555V28.555H25.9596V12.9795ZM23.3636 6.48969H24.6616V7.78765H23.3636V6.48969ZM22.0657 7.78765H23.3636V9.08561H22.0657V7.78765ZM18.1718 9.08561H20.7677V10.3836H18.1718V9.08561ZM18.1718 12.9795H20.7677V14.2774H18.1718V12.9795ZM16.8738 10.3836H18.1718V12.9795H16.8738V10.3836ZM20.7677 10.3836H22.0657V12.9795H20.7677V10.3836ZM15.5759 7.78765H16.8738V9.08561H15.5759V7.78765ZM14.2779 6.48969H15.5759V7.78765H14.2779V6.48969ZM10.3841 5.19173H12.98V6.48969H10.3841V5.19173ZM10.3841 1.29785H12.98V2.59581H10.3841V1.29785ZM12.98 2.59581H14.2779V5.19173H12.98V2.59581ZM9.08609 2.59581H10.3841V5.19173H9.08609V2.59581ZM25.9596 5.19173H28.5555V6.48969H25.9596V5.19173ZM24.6616 2.59581H25.9596V5.19173H24.6616V2.59581ZM25.9596 1.29785H28.5555V2.59581H25.9596V1.29785ZM28.5555 2.59581H29.8534V5.19173H28.5555V2.59581ZM7.78814 7.78765H9.08609V9.08561H7.78814V7.78765ZM6.49018 9.08561H7.78814V10.3836H6.49018V9.08561ZM5.19222 11.6815H6.49018V14.2774H5.19222V11.6815ZM1.29834 11.6815H2.5963V14.2774H1.29834V11.6815ZM2.5963 10.3836H5.19222V11.6815H2.5963V10.3836ZM2.5963 14.2774H5.19222V15.5754H2.5963V14.2774Z" fill="#F14B51"/>
</svg>
