<svg width="32" height="32" viewBox="0 0 32 32" fill="none" xmlns="http://www.w3.org/2000/svg">
<path d="M25.959 22.0651C26.6475 22.0651 27.3078 21.7916 27.7946 21.3048C28.2814 20.8179 28.5549 20.1577 28.5549 19.4692V5.19162C28.5549 4.50314 28.2814 3.84286 27.7946 3.35603C27.3078 2.8692 26.6475 2.5957 25.959 2.5957H12.2785C12.7328 3.38746 12.9794 4.28305 12.9794 5.19162H25.959V19.4692H14.2774V22.0651M19.4692 9.0855V11.6814H11.6815V28.5549H9.08555V20.7671H6.48963V28.5549H3.89372V18.1712H1.94678V11.6814C1.94678 10.9929 2.22027 10.3327 2.7071 9.84583C3.19393 9.359 3.85422 9.0855 4.5427 9.0855H19.4692ZM10.3835 5.19162C10.3835 5.8801 10.11 6.54038 9.62319 7.02721C9.13636 7.51404 8.47607 7.78754 7.78759 7.78754C7.09911 7.78754 6.43883 7.51404 5.952 7.02721C5.46517 6.54038 5.19168 5.8801 5.19168 5.19162C5.19168 4.50314 5.46517 3.84286 5.952 3.35603C6.43883 2.8692 7.09911 2.5957 7.78759 2.5957C8.47607 2.5957 9.13636 2.8692 9.62319 3.35603C10.11 3.84286 10.3835 4.50314 10.3835 5.19162Z" fill="#F14B51"/>
</svg>
