<svg width="32" height="32" viewBox="0 0 32 32" fill="none" xmlns="http://www.w3.org/2000/svg">
<path d="M10.3838 15.2508V9.73448C10.3838 9.19367 10.5733 8.73419 10.9523 8.35605C11.3313 7.97791 11.7908 7.78841 12.3308 7.78754C12.8707 7.78668 13.3306 7.97618 13.7105 8.35605C14.0904 8.73592 14.2794 9.1954 14.2777 9.73448V15.2508C14.2777 15.7916 14.0886 16.2515 13.7105 16.6305C13.3324 17.0095 12.8725 17.1986 12.3308 17.1977C11.7891 17.1969 11.3296 17.0078 10.9523 16.6305C10.5751 16.2533 10.3856 15.7934 10.3838 15.2508ZM16.8736 14.9588V4.54264C16.8736 4.00183 17.0631 3.54235 17.4421 3.16421C17.8211 2.78607 18.2806 2.59657 18.8206 2.59571C19.3605 2.59484 19.8204 2.78434 20.2003 3.16421C20.5802 3.54408 20.7692 4.00356 20.7675 4.54264V14.9588C20.7675 15.6077 20.5676 16.0945 20.1679 16.419C19.7681 16.7435 19.319 16.9057 18.8206 16.9057C18.3222 16.9057 17.8735 16.7435 17.4746 16.419C17.0757 16.0945 16.8754 15.6077 16.8736 14.9588ZM3.89404 19.4367V14.9263C3.89404 14.3855 4.08354 13.926 4.46255 13.5479C4.84155 13.1697 5.30103 12.9802 5.84098 12.9794C6.38093 12.9785 6.84084 13.168 7.22071 13.5479C7.60058 13.9278 7.78965 14.3872 7.78792 14.9263V19.4367C7.78792 20.0857 7.58803 20.5724 7.18826 20.8969C6.78849 21.2214 6.3394 21.3837 5.84098 21.3837C5.34257 21.3837 4.8939 21.2214 4.495 20.8969C4.09609 20.5724 3.89577 20.0857 3.89404 19.4367ZM7.00915 27.3218C6.4467 27.3218 6.05168 27.057 5.82411 26.5275C5.59653 25.9979 5.68869 25.5272 6.10057 25.1153L11.4222 19.7937C11.6602 19.5557 11.947 19.4259 12.2828 19.4043C12.6185 19.3826 12.9157 19.4908 13.1744 19.7288L16.8736 22.9088L24.1422 15.6402H23.3634C22.9957 15.6402 22.6876 15.5156 22.4393 15.2664C22.1909 15.0172 22.0663 14.7091 22.0655 14.3422C22.0646 13.9753 22.1892 13.6673 22.4393 13.4181C22.6894 13.1689 22.9974 13.0443 23.3634 13.0443H27.2573C27.6251 13.0443 27.9335 13.1689 28.1828 13.4181C28.432 13.6673 28.5561 13.9753 28.5553 14.3422V18.2361C28.5553 18.6039 28.4307 18.9123 28.1815 19.1616C27.9322 19.4108 27.6242 19.5349 27.2573 19.5341C26.8904 19.5332 26.5824 19.4086 26.3332 19.1603C26.084 18.9119 25.9593 18.6039 25.9593 18.2361V17.4573L17.8471 25.5696C17.6091 25.8075 17.3223 25.9373 16.9866 25.959C16.6508 25.9806 16.3536 25.8724 16.0949 25.6345L12.3957 22.4545L7.91772 26.9324C7.80955 27.0406 7.67457 27.1328 7.51275 27.2089C7.35094 27.2851 7.18307 27.3227 7.00915 27.3218Z" fill="#F14B51"/>
</svg>
