<svg width="32" height="32" viewBox="0 0 32 32" fill="none" xmlns="http://www.w3.org/2000/svg">
<path d="M30.1777 15.5753C30.1777 15.8335 30.0752 16.0811 29.8926 16.2637C29.71 16.4463 29.4624 16.5488 29.2042 16.5488H27.1758C26.9439 17.909 26.2387 19.1435 25.1849 20.0341C24.131 20.9248 22.7963 21.4143 21.4165 21.4162H16.5491V24.3366H19.4696C20.5023 24.3366 21.4927 24.7468 22.2229 25.4771C22.9532 26.2073 23.3634 27.1977 23.3634 28.2304C23.3634 28.4886 23.2609 28.7362 23.0783 28.9188C22.8957 29.1014 22.6481 29.2039 22.39 29.2039C22.1318 29.2039 21.8842 29.1014 21.7016 28.9188C21.5191 28.7362 21.4165 28.4886 21.4165 28.2304C21.4165 27.7141 21.2114 27.2189 20.8462 26.8538C20.4811 26.4886 19.9859 26.2835 19.4696 26.2835H16.5491V28.2304C16.5491 28.4886 16.4466 28.7362 16.264 28.9188C16.0815 29.1014 15.8339 29.2039 15.5757 29.2039C15.3175 29.2039 15.0699 29.1014 14.8873 28.9188C14.7048 28.7362 14.6022 28.4886 14.6022 28.2304V26.2835H11.6818C11.1654 26.2835 10.6702 26.4886 10.3051 26.8538C9.93998 27.2189 9.73486 27.7141 9.73486 28.2304C9.73486 28.4886 9.6323 28.7362 9.44973 28.9188C9.26717 29.1014 9.01957 29.2039 8.76139 29.2039C8.50321 29.2039 8.2556 29.1014 8.07304 28.9188C7.89048 28.7362 7.78792 28.4886 7.78792 28.2304C7.78792 27.1977 8.19817 26.2073 8.92841 25.4771C9.65865 24.7468 10.6491 24.3366 11.6818 24.3366H14.6022V21.4162H9.73486C8.35505 21.4143 7.02032 20.9248 5.96646 20.0341C4.91261 19.1435 4.20745 17.909 3.97557 16.5488H1.9471C1.68892 16.5488 1.44132 16.4463 1.25876 16.2637C1.07619 16.0811 0.973633 15.8335 0.973633 15.5753C0.973633 15.3172 1.07619 15.0696 1.25876 14.887C1.44132 14.7044 1.68892 14.6019 1.9471 14.6019H4.86751C5.12569 14.6019 5.3733 14.7044 5.55586 14.887C5.73842 15.0696 5.84098 15.3172 5.84098 15.5753C5.84098 16.6081 6.25123 17.5985 6.98147 18.3287C7.71171 19.059 8.70214 19.4692 9.73486 19.4692H21.4165C22.4492 19.4692 23.4396 19.059 24.1699 18.3287C24.9001 17.5985 25.3104 16.6081 25.3104 15.5753C25.3104 15.3172 25.4129 15.0696 25.5955 14.887C25.7781 14.7044 26.0257 14.6019 26.2838 14.6019H29.2042C29.4624 14.6019 29.71 14.7044 29.8926 14.887C30.0752 15.0696 30.1777 15.3172 30.1777 15.5753ZM9.73486 17.5223H21.4165C21.6954 17.5223 21.9711 17.4624 22.2248 17.3466C22.4786 17.2308 22.7045 17.0618 22.8872 16.8511C23.07 16.6404 23.2054 16.3929 23.2842 16.1254C23.363 15.8578 23.3834 15.5765 23.344 15.3003L21.6745 3.61871C21.6063 3.15553 21.3744 2.73212 21.0207 2.42535C20.6671 2.11858 20.2152 1.94878 19.747 1.94678H11.4044C10.9362 1.94878 10.4843 2.11858 10.1306 2.42535C9.77695 2.73212 9.54501 3.15553 9.47689 3.61871L7.80739 15.3003C7.76799 15.5765 7.78838 15.8578 7.86718 16.1254C7.94598 16.3929 8.08134 16.6404 8.26411 16.8511C8.44688 17.0618 8.67278 17.2308 8.92653 17.3466C9.18028 17.4624 9.45594 17.5223 9.73486 17.5223Z" fill="#F14B51"/>
</svg>
