<svg width="32" height="32" viewBox="0 0 32 32" fill="none" xmlns="http://www.w3.org/2000/svg">
<path d="M13.6287 3.89404H5.84098C5.32462 3.89404 4.82941 4.09917 4.46429 4.46429C4.09917 4.82941 3.89404 5.32462 3.89404 5.84098V20.1185C3.89404 20.6349 4.09917 21.1301 4.46429 21.4952C4.82941 21.8603 5.32462 22.0655 5.84098 22.0655H25.3104C25.8267 22.0655 26.3219 21.8603 26.6871 21.4952C27.0522 21.1301 27.2573 20.6349 27.2573 20.1185V13.6287M15.5757 22.0655V27.2573" stroke="#F14B51" stroke-width="2.59592" stroke-linecap="round" stroke-linejoin="round"/>
<path d="M20.7673 3.89404L18.1714 6.48996L20.7673 9.08588M24.6612 3.89404L27.2571 6.48996L24.6612 9.08588M9.08569 27.2573H22.0653" stroke="#F14B51" stroke-width="2.59592" stroke-linecap="round" stroke-linejoin="round"/>
</svg>
