<svg width="32" height="32" viewBox="0 0 32 32" fill="none" xmlns="http://www.w3.org/2000/svg">
<path d="M15.5753 3.89404C13.9269 3.89404 12.4602 4.93241 11.9151 6.48996H3.89366V9.08588H6.42468L2.59571 18.1716C1.98566 20.7675 3.89366 22.0655 7.13856 22.0655C10.3835 22.0655 12.4083 20.7675 11.6814 18.1716L7.85244 9.08588H11.9021C12.3304 10.1891 13.1741 11.0328 14.2773 11.4611V25.9593H2.59571V28.5553H28.5549V25.9593H16.8733V11.4482C17.9765 11.0328 18.8202 10.1891 19.2355 9.08588H23.2982L19.4692 18.1716C18.8591 20.7675 20.7671 22.0655 24.012 22.0655C27.2569 22.0655 29.2817 20.7675 28.5549 18.1716L24.7259 9.08588H27.2569V6.48996H19.2485C18.6904 4.93241 17.2237 3.89404 15.5753 3.89404ZM15.5753 6.48996C15.9195 6.48996 16.2497 6.62671 16.4931 6.87013C16.7365 7.11354 16.8733 7.44368 16.8733 7.78792C16.8733 8.13216 16.7365 8.4623 16.4931 8.70572C16.2497 8.94913 15.9195 9.08588 15.5753 9.08588C15.2311 9.08588 14.9009 8.94913 14.6575 8.70572C14.4141 8.4623 14.2773 8.13216 14.2773 7.78792C14.2773 7.44368 14.4141 7.11354 14.6575 6.87013C14.9009 6.62671 15.2311 6.48996 15.5753 6.48996ZM7.13856 13.3042L9.0855 18.1716H5.19162L7.13856 13.3042ZM24.012 13.3042L25.959 18.1716H22.0651L24.012 13.3042Z" fill="#F14B51"/>
</svg>
