<svg width="32" height="32" viewBox="0 0 32 32" fill="none" xmlns="http://www.w3.org/2000/svg">
<path d="M13.6285 22.7145H17.5224V19.4696H20.7673V15.5757H17.5224V12.3308H13.6285V15.5757H10.3836V19.4696H13.6285V22.7145ZM9.08566 27.2573C8.37179 27.2573 7.76088 27.0033 7.25295 26.4954C6.74501 25.9875 6.49061 25.3761 6.48975 24.6614V10.3838C6.48975 9.66996 6.74415 9.05906 7.25295 8.55112C7.76175 8.04319 8.37265 7.78879 9.08566 7.78792H22.0653C22.7791 7.78792 23.3905 8.04232 23.8993 8.55112C24.4081 9.05992 24.662 9.67083 24.6612 10.3838V24.6614C24.6612 25.3753 24.4072 25.9866 23.8993 26.4954C23.3913 27.0042 22.78 27.2582 22.0653 27.2573H9.08566ZM7.78771 6.48996V3.89404H23.3632V6.48996H7.78771Z" fill="#F14B51"/>
</svg>
